# xmcd
#
# Track frame offsets: 
#        150
#        11731
#        30211
#        49788
#        65537
#        78962
#        97626
#        112945
#        123839
#        134126
#        150546
#        170493
#        187866
#        205418
#        217554
#        225978
#        241104
#        253104
#        268332
#
# Disc length: 3835 seconds
#
# Revision: 2
# Processed by: cddbd v1.5.2PL0 Copyright (c) Steve Scherf et al.
# Submitted via: ExactAudioCopy v1.0b2
#
DISCID=eb0ef913
DTITLE=Hana Hegerova - Vsechno nejlepsi CD1
DYEAR=2006
DGENRE=Avantgarde
TTITLE0=V opere
TTITLE1=Pohrdani (Zpoved herecky)
TTITLE2=Barova lavice
TTITLE3=Tak abyste to vedela
TTITLE4=Pisen o jasminu
TTITLE5=Cerna Jessie
TTITLE6=Lasko prokleta
TTITLE7=Buvaj, ze mi buvaj
TTITLE8=Rymovani o zivote
TTITLE9=Boze muj, ja chci zpet
TTITLE10=Maestro Tango
TTITLE11=Svatebni pisen
TTITLE12=Muj mily malo mily je
TTITLE13=Dikta Devla - Odoj Tejle
TTITLE14=Noc (Schon wie die Lawona)
TTITLE15=Mapa lasky
TTITLE16=Petr a Lucie
TTITLE17=Co mi das
TTITLE18=Milord
EXTD=
EXTT0=
EXTT1=
EXTT2=
EXTT3=
EXTT4=
EXTT5=
EXTT6=
EXTT7=
EXTT8=
EXTT9=
EXTT10=
EXTT11=
EXTT12=
EXTT13=
EXTT14=
EXTT15=
EXTT16=
EXTT17=
EXTT18=
PLAYORDER=
